<svg version="1.1" id="Layer_1" xmlns="http://www.w3.org/2000/svg" xmlns:xlink="http://www.w3.org/1999/xlink" x="0px" y="0px"
	 width="100%" viewBox="0 0 500 500" enable-background="new 0 0 500 500" xml:space="preserve">
<path fill="none" opacity="1.000000" stroke="none" 
	d="
M332.000000,501.000000 
	C221.333359,501.000000 111.166718,501.000000 1.000059,501.000000 
	C1.000039,334.333405 1.000039,167.666794 1.000020,1.000149 
	C167.666565,1.000099 334.333130,1.000099 500.999756,1.000050 
	C500.999847,167.666519 500.999847,334.333038 500.999939,500.999786 
	C444.833344,501.000000 388.666656,501.000000 332.000000,501.000000 
M251.810822,380.371185 
	C263.557007,379.899292 275.303192,379.427399 287.442230,378.930664 
	C287.442230,378.930664 287.819977,378.820129 288.563324,378.958313 
	C289.733429,378.633545 290.903564,378.308777 292.887451,377.928558 
	C352.334473,366.739410 399.337433,309.710236 399.854675,248.612366 
	C400.026520,228.315109 396.406555,208.925247 388.484924,190.300079 
	C386.861694,186.483627 385.348419,182.696457 380.444366,181.569412 
	C347.193512,173.927689 313.585724,171.585342 279.682648,175.238022 
	C267.832672,176.514725 256.136505,179.218506 243.817139,181.367035 
	C241.527756,172.006485 239.605301,162.198563 236.683350,152.698044 
	C233.122528,141.120224 229.719559,129.313950 224.439529,118.488701 
	C217.277542,103.805023 206.995056,100.175484 191.246536,104.512314 
	C188.364532,105.305969 185.525146,106.314133 182.753159,107.438042 
	C162.770996,115.539856 145.484863,127.955017 129.198578,141.754242 
	C115.344696,153.492508 102.339951,166.152405 91.802895,181.105072 
	C89.596832,184.235580 88.368042,187.322403 89.652878,191.322479 
	C94.683449,206.984039 109.040779,218.677551 125.402275,219.650894 
	C127.912544,219.800217 131.069778,218.659973 133.013748,217.027618 
	C140.147797,211.036972 146.788208,204.463013 153.819031,198.343658 
	C161.553726,191.611679 169.514008,185.138931 177.639496,178.332535 
	C183.591309,185.917419 186.662827,194.102829 189.418060,202.495789 
	C190.480377,205.731750 189.762314,207.489334 186.958084,209.507782 
	C168.941162,222.476242 153.737152,238.180435 142.001465,257.101471 
	C137.170547,264.890198 131.842117,272.630005 135.969467,282.582184 
	C136.060959,282.802795 135.773788,283.180389 136.142609,282.164856 
	C130.089920,285.114044 123.926285,286.536621 120.036476,290.305817 
	C107.850769,302.113525 101.108780,316.598267 102.082184,334.108765 
	C103.430939,358.371307 125.886902,377.430511 150.104401,375.081940 
	C163.754913,373.758148 175.225723,367.867004 185.563278,359.431915 
	C188.150208,357.321106 189.932114,357.320831 192.556259,358.928528 
	C197.375366,361.880859 202.252502,364.785217 207.315796,367.283234 
	C221.136200,374.101501 235.683701,378.566254 251.810822,380.371185 
M272.817413,138.158127 
	C281.580963,131.646103 291.991577,130.320023 302.524902,129.216705 
	C302.524902,124.738647 302.524902,120.697525 302.524902,116.122238 
	C284.149628,116.812782 267.905853,121.281738 256.273468,136.127594 
	C249.235443,145.109879 249.915405,146.699127 260.653656,149.753830 
	C261.573059,150.015381 262.558289,150.045517 262.512726,150.038940 
	C266.078735,145.848663 269.159149,142.228989 272.817413,138.158127 
M337.362122,110.441154 
	C337.558197,114.041130 345.043304,119.971909 347.975555,118.431679 
	C355.932831,114.251923 362.565277,117.318481 368.800171,121.917419 
	C373.432465,125.334236 377.632233,129.337494 382.353210,133.359482 
	C385.469147,130.451172 388.433044,127.684769 391.617523,124.712517 
	C384.446014,116.584412 376.881531,110.232635 367.594788,106.107834 
	C356.909149,101.361679 346.891174,101.981270 337.362122,110.441154 
z"/>
<path fill="#A6C727" opacity="1.000000" stroke="none" 
	d="
M287.819977,378.820129 
	C287.819977,378.820129 287.442230,378.930664 286.774506,378.903198 
	C274.433350,379.256195 262.759888,379.636658 251.086456,380.017090 
	C235.683701,378.566254 221.136200,374.101501 207.315796,367.283234 
	C202.252502,364.785217 197.375366,361.880859 192.556259,358.928528 
	C189.932114,357.320831 188.150208,357.321106 185.563278,359.431915 
	C175.225723,367.867004 163.754913,373.758148 150.104401,375.081940 
	C125.886902,377.430511 103.430939,358.371307 102.082184,334.108765 
	C101.108780,316.598267 107.850769,302.113525 120.036476,290.305817 
	C123.926285,286.536621 130.089920,285.114044 136.142609,282.164856 
	C135.773788,283.180389 136.060959,282.802795 135.969467,282.582184 
	C131.842117,272.630005 137.170547,264.890198 142.001465,257.101471 
	C153.737152,238.180435 168.941162,222.476242 186.958084,209.507782 
	C189.762314,207.489334 190.480377,205.731750 189.418060,202.495789 
	C186.662827,194.102829 183.591309,185.917419 177.639496,178.332535 
	C169.514008,185.138931 161.553726,191.611679 153.819031,198.343658 
	C146.788208,204.463013 140.147797,211.036972 133.013748,217.027618 
	C131.069778,218.659973 127.912544,219.800217 125.402275,219.650894 
	C109.040779,218.677551 94.683449,206.984039 89.652878,191.322479 
	C88.368042,187.322403 89.596832,184.235580 91.802895,181.105072 
	C102.339951,166.152405 115.344696,153.492508 129.198578,141.754242 
	C145.484863,127.955017 162.770996,115.539856 182.753159,107.438042 
	C185.525146,106.314133 188.364532,105.305969 191.246536,104.512314 
	C206.995056,100.175484 217.277542,103.805023 224.439529,118.488701 
	C229.719559,129.313950 233.122528,141.120224 236.683350,152.698044 
	C239.605301,162.198563 241.527756,172.006485 243.817139,181.367035 
	C256.136505,179.218506 267.832672,176.514725 279.682648,175.238022 
	C313.585724,171.585342 347.193512,173.927689 380.444366,181.569412 
	C385.348419,182.696457 386.861694,186.483627 388.484924,190.300079 
	C396.406555,208.925247 400.026520,228.315109 399.854675,248.612366 
	C399.337433,309.710236 352.334473,366.739410 292.189636,377.865448 
	C290.267883,378.141602 289.043915,378.480865 287.819977,378.820129 
M369.998962,256.998962 
	C369.998962,256.998962 370.009186,257.001801 369.594238,257.248474 
	C369.334869,257.450104 369.135254,257.699524 369.000000,258.000000 
	C369.000000,258.000000 368.996765,257.995483 368.580872,258.232147 
	C368.320862,258.428589 368.120819,258.673950 368.000000,259.000000 
	C368.000000,259.000000 367.974030,258.973145 367.253326,259.048035 
	C365.943085,259.727417 364.700104,260.627899 363.311707,261.050293 
	C354.345795,263.777985 345.402344,266.611694 336.332550,268.948883 
	C332.996765,269.808472 330.345184,267.815887 330.184631,264.138489 
	C329.922760,258.140686 328.447296,251.920746 334.032440,246.984360 
	C336.422028,244.872330 337.408630,241.736374 333.001038,239.998108 
	C333.001038,239.998108 333.037018,239.947891 332.857269,239.280228 
	C331.336090,237.681229 329.814880,236.082245 328.293701,234.483261 
	C327.197571,236.000031 326.101440,237.516800 324.986145,238.995071 
	C324.986145,238.995071 325.029083,238.997528 324.616302,239.245544 
	C324.362488,239.443695 324.133362,239.667130 323.596008,240.415497 
	C323.393494,240.976730 323.190979,241.537964 322.890686,242.509598 
	C322.890686,242.509598 322.649628,242.855835 322.188171,243.116806 
	C321.941040,243.569946 321.693909,244.023087 321.423004,244.385788 
	C321.423004,244.385788 321.515717,244.373703 320.990021,244.640228 
	C320.667419,245.114777 320.344818,245.589325 320.003143,246.006454 
	C320.003143,246.006454 320.062897,246.016037 319.503143,246.291672 
	C319.139893,246.994781 318.776672,247.697891 318.340088,248.303802 
	C318.340088,248.303802 318.455139,248.343658 317.839630,248.548630 
	C317.230621,249.379227 316.621613,250.209839 315.993591,250.994080 
	C315.993591,250.994080 316.042755,251.003647 315.617584,251.270020 
	C315.415009,251.533310 315.212463,251.796616 315.000214,252.001892 
	C315.000214,252.001892 315.055939,252.020767 314.397339,252.196396 
	C312.600189,254.142731 310.803009,256.089050 308.992401,257.992981 
	C308.992401,257.992981 309.034973,258.005981 308.412598,258.169983 
	C307.743195,258.938446 307.073792,259.706879 306.378784,260.393555 
	C306.378784,260.393555 306.462830,260.410339 305.775482,260.563934 
	C302.279877,263.184509 298.784271,265.805054 295.255707,268.307831 
	C295.255707,268.307831 295.346985,268.389282 294.595001,268.387695 
	C292.450531,269.260956 290.281494,270.078827 288.165863,271.017151 
	C279.564392,274.831879 270.744049,277.868744 261.184601,276.119812 
	C253.418808,274.699036 245.759857,272.694214 238.004150,271.001190 
	C238.004150,271.001190 238.043350,270.941742 237.776184,270.334900 
	C234.503922,267.894928 231.231644,265.454987 228.003128,262.997162 
	C228.003128,262.997162 227.984955,263.040741 227.820526,262.385590 
	C225.966507,260.553772 224.112503,258.721924 222.108170,256.870972 
	C222.108170,256.870972 222.118912,256.719818 222.001648,256.199768 
	C221.663712,255.798950 221.325775,255.398117 221.004074,254.997086 
	C221.004074,254.997086 220.998093,255.012070 220.887527,254.393723 
	C220.255539,253.594604 219.623566,252.795486 219.003754,251.997879 
	C219.003754,251.997879 219.000534,252.009735 218.877960,251.289108 
	C216.593124,246.853195 214.308304,242.417267 212.000519,237.999481 
	C212.000519,237.999481 212.024857,237.984909 212.054062,237.165588 
	C210.222656,229.793472 208.391266,222.421371 206.242325,214.372147 
	C206.182693,214.130112 206.123047,213.888062 205.707001,213.238785 
	C203.469070,214.494034 201.231140,215.749283 198.996887,216.995529 
	C198.996887,216.995529 199.006882,216.994553 198.388809,217.112350 
	C197.591476,217.752197 196.794159,218.392044 195.993423,218.988892 
	C195.993423,218.988892 196.031876,219.008453 195.379074,219.075790 
	C194.591553,219.737015 193.804031,220.398254 193.006134,220.999878 
	C193.006134,220.999878 193.064697,221.015091 192.623932,221.234299 
	C192.348297,221.424530 192.131302,221.667175 191.999481,222.000519 
	C191.999481,222.000519 191.968781,221.964676 191.353226,222.086197 
	C190.567764,222.734268 189.782288,223.382339 188.991638,223.988113 
	C188.991638,223.988113 189.031052,224.004379 188.480377,224.199265 
	C188.105911,224.633926 187.731445,225.068588 187.364838,225.398376 
	C187.364838,225.398376 187.468246,225.417511 186.802658,225.517807 
	C185.870590,226.359451 184.938522,227.201080 183.994827,227.992920 
	C183.994827,227.992920 184.043152,228.009689 183.376801,228.177032 
	C177.713165,233.939194 172.049545,239.701355 166.367859,245.341507 
	C166.367859,245.341507 166.490982,245.333923 165.965149,245.598633 
	C165.641602,246.069244 165.318069,246.539841 164.993271,246.994797 
	C164.993271,246.994797 165.008820,246.993378 164.587570,247.255661 
	C164.325043,247.470978 164.133606,247.737396 163.997574,248.000870 
	C163.997574,248.000870 164.051453,248.017075 163.486557,248.274124 
	C163.103790,248.963348 162.721024,249.652573 162.302460,250.241882 
	C162.302460,250.241882 162.404770,250.213715 161.900070,250.526047 
	C161.596695,251.017303 161.293320,251.508560 160.997406,251.997726 
	C160.997406,251.997726 160.997665,251.989655 160.437836,252.252853 
	C160.073288,252.952881 159.708725,253.652908 159.311050,254.244522 
	C159.311050,254.244522 159.421585,254.219360 158.914978,254.536789 
	C158.613739,255.034286 158.312500,255.531784 157.993835,255.997894 
	C157.993835,255.997894 158.028351,256.007385 157.433716,256.280853 
	C156.946045,257.213287 156.458389,258.145721 155.873993,259.479828 
	C155.873993,259.479828 155.635361,259.817108 155.123688,260.091827 
	C154.750443,260.737274 154.377197,261.382721 153.988281,261.995331 
	C153.988281,261.995331 154.024506,261.998810 153.404007,262.270996 
	C152.602417,263.854370 151.800827,265.437744 150.986877,266.994934 
	C150.986877,266.994934 151.015762,266.992889 150.385208,267.278320 
	C145.970932,270.776947 147.077988,275.317017 148.338257,279.643127 
	C157.283432,310.349091 175.149506,334.780273 202.596817,350.954742 
	C243.487595,375.051331 285.336884,374.937592 326.942596,352.068726 
	C331.037567,349.817871 334.393219,346.221985 338.124817,343.100281 
	C338.124817,343.100281 338.277008,343.121307 338.902374,343.049164 
	C339.939575,342.367004 340.976807,341.684875 342.321930,340.585693 
	C342.469849,340.273834 342.617798,339.962006 342.766449,339.772705 
	C342.766449,339.772705 342.644043,339.766541 343.296143,339.601685 
	C344.183655,338.708099 345.071198,337.814514 345.983917,336.982635 
	C345.983917,336.982635 345.921631,336.958862 346.473572,336.769958 
	C346.831268,336.325989 347.188995,335.882019 347.567871,335.536926 
	C347.567871,335.536926 347.467072,335.545166 347.941498,335.301910 
	C348.168152,335.032013 348.394806,334.762146 348.631866,334.630554 
	C348.631866,334.630554 348.493195,334.629974 348.962433,334.352905 
	C349.183441,334.067810 349.404449,333.782715 349.634338,333.637268 
	C349.634338,333.637268 349.494415,333.635254 349.964996,333.357666 
	C350.187164,333.072205 350.409332,332.786743 350.640137,332.643219 
	C350.640137,332.643219 350.497894,332.641235 350.968018,332.362732 
	C351.188019,332.076263 351.408020,331.789825 351.638458,331.641876 
	C351.638458,331.641876 351.499573,331.641632 351.966705,331.363464 
	C352.182129,331.076233 352.397583,330.788971 352.622528,330.627625 
	C352.622528,330.627625 352.496307,330.625916 352.963074,330.354889 
	C353.178925,330.070648 353.394775,329.786407 353.596954,329.596771 
	C353.596954,329.596771 353.504761,329.571564 354.175262,329.421692 
	C355.481750,327.707367 356.788269,325.993042 358.099365,324.099579 
	C358.099365,324.099579 358.276184,324.070190 358.820984,323.782715 
	C359.181732,323.287720 359.542511,322.792694 359.838226,322.253876 
	C359.838226,322.253876 359.880157,322.187592 360.544220,321.921814 
	C361.202332,320.819366 361.860474,319.716919 362.985382,318.973755 
	C362.827667,318.857025 362.669983,318.740326 363.172211,318.415161 
	C364.344147,316.510651 365.516083,314.606110 366.700043,312.776306 
	C366.700043,312.776306 366.624512,312.780548 367.277496,312.519257 
	C369.058594,309.228729 370.839691,305.938202 372.654266,302.754517 
	C372.654266,302.754517 372.545166,302.779388 373.147278,302.408203 
	C373.963867,301.167725 374.959930,300.009247 375.569611,298.674286 
	C382.478088,283.548187 387.310608,267.904175 387.076477,251.053177 
	C387.029572,247.677307 386.802795,244.303970 386.217773,240.120300 
	C386.108582,239.833176 385.999359,239.546036 385.320099,239.217484 
	C383.549438,240.822083 381.778778,242.426682 379.994324,243.990768 
	C379.994324,243.990768 380.035431,244.002609 379.615326,244.247101 
	C379.352081,244.445389 379.142670,244.689789 379.000000,245.000000 
	C379.000000,245.000000 378.983551,244.982468 378.306824,245.117966 
	C376.855103,246.391403 375.403381,247.664825 374.000885,248.979889 
	C374.000885,248.979889 373.937347,248.969833 373.483002,249.481461 
	C372.649048,251.642609 371.815094,253.803757 371.004730,256.001617 
	C371.004730,256.001617 370.962372,255.991180 370.564423,256.250885 
	C370.316162,256.458527 370.128662,256.711243 369.998962,256.998962 
M229.530670,186.926315 
	C229.894409,186.698608 230.258148,186.470901 230.836700,186.277618 
	C230.836700,186.277618 230.956436,186.095963 231.742172,186.068237 
	C235.249481,184.937698 238.756790,183.807159 242.573425,182.576920 
	C238.190948,178.619125 236.188019,179.073792 230.826019,183.932709 
	C229.783890,180.143738 228.741760,176.354752 227.794922,172.912262 
	C218.019211,177.738144 208.452393,182.460907 198.531403,187.358521 
	C199.765594,191.142395 201.036560,195.039062 202.342148,199.041824 
	C211.410721,194.913208 220.142334,190.937988 229.530670,186.926315 
M311.180450,235.628647 
	C321.221619,221.269485 326.851990,205.421616 327.825348,187.918884 
	C305.244598,183.961792 250.642532,190.495361 238.003418,198.559448 
	C247.113495,216.630264 247.664673,234.170456 234.484253,250.763809 
	C243.412033,262.325043 259.331451,267.457947 273.441284,263.335846 
	C289.124878,258.753967 301.062103,249.024323 311.180450,235.628647 
M342.964081,223.273438 
	C341.549866,224.319565 340.135651,225.365677 338.694885,226.431442 
	C340.280182,228.327072 341.076569,229.386536 341.981842,230.342911 
	C345.541992,234.103958 348.899933,236.402283 354.919586,234.090500 
	C359.691833,232.257751 365.502014,233.139893 370.848816,232.779129 
	C371.782257,232.716156 372.876556,232.734924 373.602875,232.263474 
	C380.260101,227.942307 383.787354,218.285217 381.406036,210.743256 
	C380.007294,206.313232 378.428680,201.933182 376.735901,197.606979 
	C376.231750,196.318497 375.228790,194.477173 374.179138,194.267578 
	C365.141266,192.463058 356.040314,190.974350 346.529266,189.316650 
	C348.169525,201.366302 349.452881,212.421844 342.964081,223.273438 
M138.085129,360.634827 
	C153.770615,364.699432 166.105698,358.013214 178.233795,348.485596 
	C175.456345,345.971619 173.143219,343.877899 170.905273,341.852234 
	C150.530838,352.003876 140.135849,351.463501 131.967773,340.052246 
	C128.589249,335.332275 127.498940,330.064819 128.133377,324.438293 
	C129.268784,314.368805 137.254822,309.625336 144.368011,304.476776 
	C140.933350,295.825012 132.956940,294.419250 127.405136,301.504700 
	C123.952255,305.911469 120.639885,310.654510 118.401405,315.746429 
	C109.885170,335.118500 118.224228,354.384277 138.085129,360.634827 
M192.756821,167.083923 
	C192.226608,168.833847 191.696381,170.583771 191.166168,172.333694 
	C192.481873,172.695663 193.957504,173.639191 195.088196,173.328308 
	C204.826294,170.650650 213.935333,166.648590 221.024719,159.163345 
	C222.234344,157.886185 223.607895,155.420609 223.151169,154.120361 
	C219.312790,143.193100 215.155594,132.373383 210.847870,121.620033 
	C210.166397,119.918854 208.249893,118.712425 205.909683,116.216232 
	C205.984436,135.200363 201.986603,151.497757 192.756821,167.083923 
M163.254486,132.733612 
	C161.528564,133.953781 159.802643,135.173950 158.487610,136.103638 
	C163.961533,145.252090 169.198608,154.004730 174.512894,162.886383 
	C179.817093,162.264969 183.406464,158.927246 185.080353,153.608917 
	C187.413895,146.194717 189.784409,138.770874 191.585159,131.219070 
	C192.503220,127.369034 192.212448,123.230751 192.513840,118.505569 
	C181.270035,121.507912 172.485428,126.768288 163.254486,132.733612 
M129.566193,164.978195 
	C135.817688,171.720047 142.069183,178.461899 148.580887,185.484360 
	C151.907776,182.628021 156.030960,179.264771 159.911484,175.641617 
	C160.985352,174.638977 162.200836,172.626480 161.885880,171.479828 
	C159.124969,161.427872 154.488968,152.392059 146.378754,144.680893 
	C139.314255,150.530273 132.591934,156.096313 125.584190,161.898682 
	C127.199135,163.167480 128.098145,163.873810 129.566193,164.978195 
M135.143570,197.453949 
	C135.366135,196.843903 135.883911,196.169937 135.767670,195.633270 
	C133.479904,185.070358 126.050606,178.590988 117.573868,172.987427 
	C117.100845,172.674744 115.968132,172.512070 115.759193,172.773132 
	C111.643326,177.916000 107.584633,183.106461 103.644020,188.384094 
	C103.345367,188.784058 103.807297,190.072891 104.272850,190.670120 
	C107.188698,194.410599 109.635323,198.826935 113.307968,201.603104 
	C121.066635,207.467880 124.482826,206.923172 131.688187,200.648361 
	C132.688156,199.777512 133.670334,198.886215 135.143570,197.453949 
M155.096252,322.338074 
	C153.658157,320.404907 152.220078,318.471771 150.832657,316.606720 
	C141.660187,321.539001 139.244965,326.341034 142.639694,332.210052 
	C145.680222,337.466705 152.967758,337.220367 161.324112,331.379425 
	C159.409927,328.557312 157.488571,325.724670 155.096252,322.338074 
z"/>
<path fill="#A5C328" opacity="1.000000" stroke="none" 
	d="
M272.528503,138.383728 
	C269.159149,142.228989 266.078735,145.848663 262.512726,150.038940 
	C262.558289,150.045517 261.573059,150.015381 260.653656,149.753830 
	C249.915405,146.699127 249.235443,145.109879 256.273468,136.127594 
	C267.905853,121.281738 284.149628,116.812782 302.524902,116.122238 
	C302.524902,120.697525 302.524902,124.738647 302.524902,129.216705 
	C291.991577,130.320023 281.580963,131.646103 272.528503,138.383728 
z"/>
<path fill="#A6C428" opacity="1.000000" stroke="none" 
	d="
M337.613586,110.226463 
	C346.891174,101.981270 356.909149,101.361679 367.594788,106.107834 
	C376.881531,110.232635 384.446014,116.584412 391.617523,124.712517 
	C388.433044,127.684769 385.469147,130.451172 382.353210,133.359482 
	C377.632233,129.337494 373.432465,125.334236 368.800171,121.917419 
	C362.565277,117.318481 355.932831,114.251923 347.975555,118.431679 
	C345.043304,119.971909 337.558197,114.041130 337.613586,110.226463 
z"/>
<path fill="#8C8C2F" opacity="1.000000" stroke="none" 
	d="
M251.448639,380.194153 
	C262.759888,379.636658 274.433350,379.256195 286.578064,378.915619 
	C275.303192,379.427399 263.557007,379.899292 251.448639,380.194153 
z"/>
<path fill="#8C8C2F" opacity="1.000000" stroke="none" 
	d="
M288.191650,378.889221 
	C289.043915,378.480865 290.267883,378.141602 291.782745,377.893158 
	C290.903564,378.308777 289.733429,378.633545 288.191650,378.889221 
z"/>
<path fill="none" opacity="1.000000" stroke="none" 
	d="
M206.063385,213.645996 
	C206.123047,213.888062 206.182693,214.130112 206.297607,215.112213 
	C208.243546,223.229828 210.134201,230.607376 212.024857,237.984909 
	C212.024857,237.984909 212.000519,237.999481 212.031952,238.363525 
	C214.375778,243.154953 216.688156,247.582352 219.000519,252.009735 
	C219.000534,252.009735 219.003754,251.997879 219.047607,252.307571 
	C219.727005,253.415527 220.362549,254.213806 220.998093,255.012070 
	C220.998093,255.012070 221.004074,254.997086 221.044769,255.262909 
	C221.429947,255.925751 221.774429,256.322784 222.118912,256.719818 
	C222.118912,256.719818 222.108170,256.870972 222.313965,257.177887 
	C224.341507,259.336792 226.163239,261.188751 227.984955,263.040741 
	C227.984955,263.040741 228.003128,262.997162 228.090973,263.322998 
	C231.466995,266.079834 234.755173,268.510773 238.043350,270.941742 
	C238.043350,270.941742 238.004150,271.001190 238.244934,271.241943 
	C258.052002,281.710754 276.959686,279.832611 295.346985,268.389282 
	C295.346985,268.389282 295.255707,268.307831 295.611755,268.258240 
	C299.466156,265.609192 302.964508,263.009766 306.462830,260.410339 
	C306.462830,260.410339 306.378784,260.393555 306.675049,260.304932 
	C307.659241,259.479553 308.347107,258.742767 309.034973,258.005981 
	C309.034973,258.005981 308.992401,257.992981 309.318176,257.910828 
	C311.447937,255.892685 313.251953,253.956726 315.055939,252.020767 
	C315.055939,252.020767 315.000214,252.001892 315.254150,251.941818 
	C315.686310,251.589050 315.864532,251.296356 316.042786,251.003662 
	C316.042755,251.003647 315.993591,250.994080 316.284698,250.888947 
	C317.202240,249.970428 317.828705,249.157043 318.455139,248.343658 
	C318.455139,248.343658 318.340088,248.303802 318.638245,248.198364 
	C319.311890,247.400620 319.687408,246.708328 320.062897,246.016037 
	C320.062897,246.016037 320.003143,246.006454 320.275818,245.911133 
	C320.870880,245.335114 321.193298,244.854401 321.515717,244.373688 
	C321.515717,244.373703 321.423004,244.385788 321.662537,244.296234 
	C322.151276,243.756393 322.400482,243.306122 322.649658,242.855835 
	C322.649628,242.855835 322.890686,242.509598 323.183807,242.169113 
	C323.866547,241.213226 324.256165,240.597824 324.788086,239.754303 
	C324.963318,239.349960 324.996216,239.173752 325.029083,238.997528 
	C325.029083,238.997528 324.986145,238.995071 325.290039,238.831360 
	C326.524750,237.639313 327.455505,236.610977 328.333649,235.640793 
	C330.133545,237.289047 331.585266,238.618469 333.037018,239.947906 
	C333.037018,239.947891 333.001038,239.998108 333.187256,240.301941 
	C333.653687,242.070999 334.609924,244.507462 334.111664,244.854248 
	C327.689606,249.324112 328.258667,255.823380 328.518280,262.343933 
	C328.797455,269.355896 331.753937,271.793427 338.741852,270.524597 
	C340.210663,270.257904 341.691223,270.012909 343.127594,269.617126 
	C351.892303,267.202057 360.975830,265.515625 367.974030,258.973145 
	C367.974030,258.973145 368.000000,259.000000 368.228210,258.905884 
	C368.636536,258.539703 368.816650,258.267578 368.996765,257.995483 
	C368.996765,257.995483 369.000000,258.000000 369.239044,257.919037 
	C369.655121,257.559326 369.832184,257.280579 370.009216,257.001831 
	C370.009186,257.001801 369.998962,256.998962 370.238464,256.919434 
	C370.639435,256.556976 370.800903,256.274078 370.962372,255.991180 
	C370.962372,255.991180 371.004730,256.001617 371.287903,255.799866 
	C372.359833,253.388687 373.148590,251.179260 373.937347,248.969833 
	C373.937347,248.969833 374.000885,248.979889 374.246002,248.777542 
	C375.988617,247.377625 377.486084,246.180054 378.983551,244.982483 
	C378.983551,244.982468 379.000000,245.000000 379.240387,244.919647 
	C379.665649,244.560394 379.850555,244.281509 380.035431,244.002609 
	C380.035431,244.002609 379.994324,243.990768 380.328064,243.913422 
	C382.404572,242.310349 384.147339,240.784622 385.890106,239.258911 
	C385.999359,239.546036 386.108582,239.833176 386.346924,240.989624 
	C385.373383,252.374100 385.228699,263.107574 382.896271,273.342499 
	C380.600250,283.417847 376.086060,292.987732 372.545166,302.779388 
	C372.545166,302.779388 372.654266,302.754517 372.371033,302.902313 
	C370.266724,306.293579 368.445618,309.537079 366.624512,312.780548 
	C366.624512,312.780548 366.700043,312.776306 366.409912,312.905396 
	C364.917297,314.897522 363.714813,316.760559 362.512329,318.623596 
	C362.669983,318.740326 362.827667,318.857025 362.487305,318.970032 
	C361.286224,320.040100 360.583191,321.113861 359.880157,322.187592 
	C359.880157,322.187592 359.838226,322.253876 359.584808,322.408203 
	C358.979645,323.065094 358.627899,323.567627 358.276184,324.070190 
	C358.276184,324.070190 358.099365,324.099579 357.823181,324.348633 
	C356.199615,326.255646 354.852203,327.913605 353.504761,329.571564 
	C353.504761,329.571564 353.596954,329.596771 353.331360,329.637695 
	C352.875946,329.994385 352.686127,330.310150 352.496307,330.625916 
	C352.496307,330.625916 352.622528,330.627625 352.343262,330.653870 
	C351.875854,331.000610 351.687714,331.321106 351.499573,331.641632 
	C351.499573,331.641632 351.638458,331.641876 351.352783,331.656189 
	C350.877350,331.994049 350.687622,332.317657 350.497894,332.641235 
	C350.497894,332.641235 350.640137,332.643219 350.352173,332.651855 
	C349.874268,332.985382 349.684326,333.310333 349.494415,333.635254 
	C349.494415,333.635254 349.634338,333.637268 349.346375,333.645966 
	C348.869965,333.979767 348.681580,334.304871 348.493195,334.629974 
	C348.493195,334.629974 348.631866,334.630554 348.347595,334.627106 
	C347.864594,334.930817 347.665833,335.238007 347.467072,335.545166 
	C347.467072,335.545166 347.567871,335.536926 347.271301,335.572510 
	C346.623688,336.058380 346.272644,336.508606 345.921631,336.958862 
	C345.921631,336.958862 345.983917,336.982635 345.661926,337.035522 
	C344.441284,337.981140 343.542664,338.873840 342.644043,339.766541 
	C342.644043,339.766541 342.766449,339.772705 342.538269,339.777740 
	C342.310089,339.782776 342.011261,340.149139 341.724701,340.248840 
	C340.384430,341.272827 339.330719,342.197052 338.276978,343.121277 
	C338.277008,343.121307 338.124817,343.100281 337.786041,343.275604 
	C294.451416,373.392975 249.639893,375.904358 204.184631,350.323059 
	C177.699448,335.417694 160.349442,312.097290 150.719910,283.138824 
	C148.875244,277.591431 147.491638,272.317780 151.015762,266.992889 
	C151.015762,266.992889 150.986877,266.994934 151.266174,266.822876 
	C152.371811,265.100159 153.198166,263.549500 154.024506,261.998810 
	C154.024506,261.998810 153.988281,261.995331 154.246613,261.877808 
	C154.881760,261.112549 155.258560,260.464844 155.635361,259.817108 
	C155.635361,259.817108 155.873993,259.479828 156.195862,259.111267 
	C157.021271,257.830933 157.524811,256.919159 158.028351,256.007385 
	C158.028351,256.007385 157.993835,255.997894 158.266663,255.875519 
	C158.833511,255.241898 159.127548,254.730621 159.421585,254.219360 
	C159.421585,254.219360 159.311050,254.244522 159.590607,254.150894 
	C160.246002,253.368073 160.621841,252.678864 160.997681,251.989655 
	C160.997665,251.989655 160.997406,251.997726 161.257111,251.863419 
	C161.812805,251.223984 162.108780,250.718842 162.404770,250.213715 
	C162.404770,250.213715 162.302460,250.241882 162.594299,250.158875 
	C163.274582,249.389603 163.663010,248.703339 164.051453,248.017075 
	C164.051453,248.017075 163.997574,248.000870 164.248169,247.933289 
	C164.668777,247.574921 164.838806,247.284149 165.008820,246.993378 
	C165.008820,246.993378 164.993271,246.994797 165.257355,246.882019 
	C165.844635,246.290787 166.167801,245.812363 166.490982,245.333923 
	C166.490982,245.333923 166.367859,245.341507 166.675201,245.239777 
	C172.669434,239.428604 178.356293,233.719147 184.043152,228.009689 
	C184.043152,228.009689 183.994827,227.992920 184.307434,227.936554 
	C185.569458,227.059311 186.518845,226.238403 187.468246,225.417511 
	C187.468246,225.417511 187.364838,225.398376 187.631134,225.336578 
	C188.275299,224.851318 188.653183,224.427856 189.031067,224.004395 
	C189.031052,224.004379 188.991638,223.988113 189.299652,223.945099 
	C190.394714,223.256287 191.181747,222.610489 191.968781,221.964676 
	C191.968781,221.964676 191.999481,222.000519 192.237518,221.920532 
	C192.671936,221.565399 192.868317,221.290237 193.064697,221.015091 
	C193.064697,221.015091 193.006134,220.999878 193.322113,220.971497 
	C194.436035,220.298233 195.233948,219.653336 196.031876,219.008453 
	C196.031876,219.008453 195.993423,218.988892 196.305435,218.954803 
	C197.413925,218.278656 198.210403,217.636597 199.006882,216.994553 
	C199.006882,216.994553 198.996887,216.995529 199.338181,216.914124 
	C201.807449,215.770493 203.935425,214.708252 206.063385,213.645996 
M235.185593,309.479309 
	C235.446274,309.686829 235.706940,309.894318 235.955292,310.034546 
	C235.955292,310.034546 235.889816,310.054352 236.046661,310.739380 
	C237.504684,312.938629 239.069534,315.075256 240.401764,317.348236 
	C245.507278,326.058929 245.482208,326.081390 254.888443,321.805817 
	C255.456879,321.547424 255.925873,321.070312 256.868652,320.383514 
	C255.471100,317.547272 254.107544,314.780060 252.887054,311.563354 
	C252.887054,311.563354 253.000519,311.105469 253.763046,311.202148 
	C272.734039,311.089844 291.705048,310.977112 310.676025,310.865295 
	C319.664825,310.812317 328.656494,310.861908 337.639374,310.603912 
	C339.037415,310.563782 341.439545,309.276733 341.582245,308.303162 
	C342.074432,304.945160 341.771698,301.470612 341.771698,297.559265 
	C339.531006,297.559265 337.562164,297.559265 335.593323,297.559265 
	C307.794159,297.559296 279.992706,297.367310 252.197495,297.699921 
	C245.589798,297.778961 240.188965,296.737030 236.056503,291.270081 
	C235.108398,290.015778 233.443970,289.302917 232.083008,288.149292 
	C232.083008,288.149292 231.889694,288.153351 231.528946,287.545197 
	C225.985001,283.485779 226.380646,289.515686 224.589035,291.709534 
	C224.589035,291.709534 224.553543,291.625305 224.011490,292.039642 
	C222.704041,294.225861 220.675415,296.149048 223.861832,298.718750 
	C227.785965,301.883392 231.332321,305.516479 235.002655,308.995148 
	C235.002655,308.995148 235.059738,308.970886 235.185593,309.479309 
z"/>
<path fill="none" opacity="1.000000" stroke="none" 
	d="
M310.968353,235.917755 
	C301.062103,249.024323 289.124878,258.753967 273.441284,263.335846 
	C259.331451,267.457947 243.412033,262.325043 234.484161,250.763794 
	C247.664673,234.170456 247.113495,216.630264 238.003418,198.559448 
	C250.642532,190.495361 305.244598,183.961792 327.825348,187.918884 
	C326.851990,205.421616 321.221619,221.269485 310.968353,235.917755 
z"/>
<path fill="none" opacity="1.000000" stroke="none" 
	d="
M343.190887,222.991516 
	C349.452881,212.421844 348.169525,201.366302 346.529266,189.316650 
	C356.040314,190.974350 365.141266,192.463058 374.179138,194.267578 
	C375.228790,194.477173 376.231750,196.318497 376.735901,197.606979 
	C378.428680,201.933182 380.007294,206.313232 381.406036,210.743256 
	C383.787354,218.285217 380.260101,227.942307 373.602875,232.263474 
	C372.876556,232.734924 371.782257,232.716156 370.848816,232.779129 
	C365.502014,233.139893 359.691833,232.257751 354.919586,234.090500 
	C348.899933,236.402283 345.541992,234.103958 341.981842,230.342911 
	C341.076569,229.386536 340.280182,228.327072 338.694885,226.431442 
	C340.135651,225.365677 341.549866,224.319565 343.190887,222.991516 
z"/>
<path fill="none" opacity="1.000000" stroke="none" 
	d="
M137.695084,360.513062 
	C118.224228,354.384277 109.885170,335.118500 118.401405,315.746429 
	C120.639885,310.654510 123.952255,305.911469 127.405136,301.504700 
	C132.956940,294.419250 140.933350,295.825012 144.368011,304.476776 
	C137.254822,309.625336 129.268784,314.368805 128.133377,324.438293 
	C127.498940,330.064819 128.589249,335.332275 131.967773,340.052246 
	C140.135849,351.463501 150.530838,352.003876 170.905273,341.852234 
	C173.143219,343.877899 175.456345,345.971619 178.233795,348.485596 
	C166.105698,358.013214 153.770615,364.699432 137.695084,360.513062 
z"/>
<path fill="none" opacity="1.000000" stroke="none" 
	d="
M192.942291,166.780609 
	C201.986603,151.497757 205.984436,135.200363 205.909683,116.216232 
	C208.249893,118.712425 210.166397,119.918854 210.847870,121.620033 
	C215.155594,132.373383 219.312790,143.193100 223.151169,154.120361 
	C223.607895,155.420609 222.234344,157.886185 221.024719,159.163345 
	C213.935333,166.648590 204.826294,170.650650 195.088196,173.328308 
	C193.957504,173.639191 192.481873,172.695663 191.166168,172.333694 
	C191.696381,170.583771 192.226608,168.833847 192.942291,166.780609 
z"/>
<path fill="none" opacity="1.000000" stroke="none" 
	d="
M163.537323,132.507004 
	C172.485428,126.768288 181.270035,121.507912 192.513840,118.505569 
	C192.212448,123.230751 192.503220,127.369034 191.585159,131.219070 
	C189.784409,138.770874 187.413895,146.194717 185.080353,153.608917 
	C183.406464,158.927246 179.817093,162.264969 174.512894,162.886383 
	C169.198608,154.004730 163.961533,145.252090 158.487610,136.103638 
	C159.802643,135.173950 161.528564,133.953781 163.537323,132.507004 
z"/>
<path fill="none" opacity="1.000000" stroke="none" 
	d="
M129.281677,164.779160 
	C128.098145,163.873810 127.199135,163.167480 125.584190,161.898682 
	C132.591934,156.096313 139.314255,150.530273 146.378754,144.680893 
	C154.488968,152.392059 159.124969,161.427872 161.885880,171.479828 
	C162.200836,172.626480 160.985352,174.638977 159.911484,175.641617 
	C156.030960,179.264771 151.907776,182.628021 148.580887,185.484360 
	C142.069183,178.461899 135.817688,171.720047 129.281677,164.779160 
z"/>
<path fill="none" opacity="1.000000" stroke="none" 
	d="
M134.902161,197.729156 
	C133.670334,198.886215 132.688156,199.777512 131.688187,200.648361 
	C124.482826,206.923172 121.066635,207.467880 113.307968,201.603104 
	C109.635323,198.826935 107.188698,194.410599 104.272850,190.670120 
	C103.807297,190.072891 103.345367,188.784058 103.644020,188.384094 
	C107.584633,183.106461 111.643326,177.916000 115.759193,172.773132 
	C115.968132,172.512070 117.100845,172.674744 117.573868,172.987427 
	C126.050606,178.590988 133.479904,185.070358 135.767670,195.633270 
	C135.883911,196.169937 135.366135,196.843903 134.902161,197.729156 
z"/>
<path fill="#9DA636" opacity="1.000000" stroke="none" 
	d="
M150.700485,267.135620 
	C147.491638,272.317780 148.875244,277.591431 150.719910,283.138824 
	C160.349442,312.097290 177.699448,335.417694 204.184631,350.323059 
	C249.639893,375.904358 294.451416,373.392975 337.769653,343.350647 
	C334.393219,346.221985 331.037567,349.817871 326.942596,352.068726 
	C285.336884,374.937592 243.487595,375.051331 202.596817,350.954742 
	C175.149506,334.780273 157.283432,310.349091 148.338257,279.643127 
	C147.077988,275.317017 145.970932,270.776947 150.700485,267.135620 
z"/>
<path fill="none" opacity="1.000000" stroke="none" 
	d="
M230.956436,186.095963 
	C230.956436,186.095963 230.836700,186.277618 230.406479,186.293488 
	C229.608826,186.527145 229.241394,186.744949 228.873962,186.962769 
	C220.142334,190.937988 211.410721,194.913208 202.342148,199.041824 
	C201.036560,195.039062 199.765594,191.142395 198.531403,187.358521 
	C208.452393,182.460907 218.019211,177.738144 227.794922,172.912262 
	C228.741760,176.354752 229.783890,180.143738 230.912308,184.643692 
	C230.984528,185.601776 230.970474,185.848877 230.956436,186.095963 
z"/>
<path fill="none" opacity="1.000000" stroke="none" 
	d="
M155.331726,322.615051 
	C157.488571,325.724670 159.409927,328.557312 161.324112,331.379425 
	C152.967758,337.220367 145.680222,337.466705 142.639694,332.210052 
	C139.244965,326.341034 141.660187,321.539001 150.832657,316.606720 
	C152.220078,318.471771 153.658157,320.404907 155.331726,322.615051 
z"/>
<path fill="#A1AD38" opacity="1.000000" stroke="none" 
	d="
M367.613678,259.010590 
	C360.975830,265.515625 351.892303,267.202057 343.127594,269.617126 
	C341.691223,270.012909 340.210663,270.257904 338.741852,270.524597 
	C331.753937,271.793427 328.797455,269.355896 328.518280,262.343933 
	C328.258667,255.823380 327.689606,249.324112 334.111664,244.854248 
	C334.609924,244.507462 333.653687,242.070999 333.212708,240.284424 
	C337.408630,241.736374 336.422028,244.872330 334.032440,246.984360 
	C328.447296,251.920746 329.922760,258.140686 330.184631,264.138489 
	C330.345184,267.815887 332.996765,269.808472 336.332550,268.948883 
	C345.402344,266.611694 354.345795,263.777985 363.311707,261.050293 
	C364.700104,260.627899 365.943085,259.727417 367.613678,259.010590 
z"/>
<path fill="#9DA636" opacity="1.000000" stroke="none" 
	d="
M294.971008,268.388489 
	C276.959686,279.832611 258.052002,281.710754 238.269623,271.215576 
	C245.759857,272.694214 253.418808,274.699036 261.184601,276.119812 
	C270.744049,277.868744 279.564392,274.831879 288.165863,271.017151 
	C290.281494,270.078827 292.450531,269.260956 294.971008,268.388489 
z"/>
<path fill="#A1AD38" opacity="1.000000" stroke="none" 
	d="
M372.846222,302.593811 
	C376.086060,292.987732 380.600250,283.417847 382.896271,273.342499 
	C385.228699,263.107574 385.373383,252.374100 386.567535,241.394211 
	C386.802795,244.303970 387.029572,247.677307 387.076477,251.053177 
	C387.310608,267.904175 382.478088,283.548187 375.569611,298.674286 
	C374.959930,300.009247 373.963867,301.167725 372.846222,302.593811 
z"/>
<path fill="#8C8C2F" opacity="1.000000" stroke="none" 
	d="
M231.349304,186.082092 
	C230.970474,185.848877 230.984528,185.601776 231.043243,184.984192 
	C236.188019,179.073792 238.190948,178.619125 242.573425,182.576920 
	C238.756790,183.807159 235.249481,184.937698 231.349304,186.082092 
z"/>
<path fill="#9DA636" opacity="1.000000" stroke="none" 
	d="
M183.709976,228.093353 
	C178.356293,233.719147 172.669434,239.428604 166.684235,245.300797 
	C172.049545,239.701355 177.713165,233.939194 183.709976,228.093353 
z"/>
<path fill="#9DA636" opacity="1.000000" stroke="none" 
	d="
M212.039459,237.575256 
	C210.134201,230.607376 208.243546,223.229828 206.456390,215.450775 
	C208.391266,222.421371 210.222656,229.793472 212.039459,237.575256 
z"/>
<path fill="#9DA636" opacity="1.000000" stroke="none" 
	d="
M218.939240,251.649414 
	C216.688156,247.582352 214.375778,243.154953 212.043427,238.354462 
	C214.308304,242.417267 216.593124,246.853195 218.939240,251.649414 
z"/>
<path fill="#9DA636" opacity="1.000000" stroke="none" 
	d="
M237.909760,270.638306 
	C234.755173,268.510773 231.466995,266.079834 228.069092,263.331940 
	C231.231644,265.454987 234.503922,267.894928 237.909760,270.638306 
z"/>
<path fill="#9DA636" opacity="1.000000" stroke="none" 
	d="
M306.119141,260.487122 
	C302.964508,263.009766 299.466156,265.609192 295.628235,268.317139 
	C298.784271,265.805054 302.279877,263.184509 306.119141,260.487122 
z"/>
<path fill="#A1AD38" opacity="1.000000" stroke="none" 
	d="
M332.947144,239.614075 
	C331.585266,238.618469 330.133545,237.289047 328.333649,235.640793 
	C327.455505,236.610977 326.524750,237.639313 325.299622,238.850616 
	C326.101440,237.516800 327.197571,236.000031 328.293701,234.483261 
	C329.814880,236.082245 331.336090,237.681229 332.947144,239.614075 
z"/>
<path fill="#A1AD38" opacity="1.000000" stroke="none" 
	d="
M366.950989,312.649902 
	C368.445618,309.537079 370.266724,306.293579 372.354309,302.848907 
	C370.839691,305.938202 369.058594,309.228729 366.950989,312.649902 
z"/>
<path fill="#9DA636" opacity="1.000000" stroke="none" 
	d="
M314.726624,252.108582 
	C313.251953,253.956726 311.447937,255.892685 309.324890,257.932007 
	C310.803009,256.089050 312.600189,254.142731 314.726624,252.108582 
z"/>
<path fill="#9DA636" opacity="1.000000" stroke="none" 
	d="
M205.885193,213.442398 
	C203.935425,214.708252 201.807449,215.770493 199.336334,216.918640 
	C201.231140,215.749283 203.469070,214.494034 205.885193,213.442398 
z"/>
<path fill="#A1AD38" opacity="1.000000" stroke="none" 
	d="
M353.840027,329.496643 
	C354.852203,327.913605 356.199615,326.255646 357.820923,324.438232 
	C356.788269,325.993042 355.481750,327.707367 353.840027,329.496643 
z"/>
<path fill="#A1AD38" opacity="1.000000" stroke="none" 
	d="
M385.605103,239.238190 
	C384.147339,240.784622 382.404572,242.310349 380.334961,243.933655 
	C381.778778,242.426682 383.549438,240.822083 385.605103,239.238190 
z"/>
<path fill="#9DA636" opacity="1.000000" stroke="none" 
	d="
M227.902740,262.713165 
	C226.163239,261.188751 224.341507,259.336792 222.389130,257.187439 
	C224.112503,258.721924 225.966507,260.553772 227.902740,262.713165 
z"/>
<path fill="#A1AD38" opacity="1.000000" stroke="none" 
	d="
M362.842285,318.519379 
	C363.714813,316.760559 364.917297,314.897522 366.403870,312.868042 
	C365.516083,314.606110 364.344147,316.510651 362.842285,318.519379 
z"/>
<path fill="#A1AD38" opacity="1.000000" stroke="none" 
	d="
M378.645203,245.050232 
	C377.486084,246.180054 375.988617,247.377625 374.221375,248.756714 
	C375.403381,247.664825 376.855103,246.391403 378.645203,245.050232 
z"/>
<path fill="#9DA636" opacity="1.000000" stroke="none" 
	d="
M153.714264,262.134888 
	C153.198166,263.549500 152.371811,265.100159 151.272339,266.835999 
	C151.800827,265.437744 152.602417,263.854370 153.714264,262.134888 
z"/>
<path fill="#A1AD38" opacity="1.000000" stroke="none" 
	d="
M373.710175,249.225647 
	C373.148590,251.179260 372.359833,253.388687 371.276123,255.781525 
	C371.815094,253.803757 372.649048,251.642609 373.710175,249.225647 
z"/>
<path fill="#9DA636" opacity="1.000000" stroke="none" 
	d="
M338.589661,343.085205 
	C339.330719,342.197052 340.384430,341.272827 341.727905,340.462219 
	C342.017639,340.575897 342.014008,341.002716 342.014008,341.002716 
	C340.976807,341.684875 339.939575,342.367004 338.589661,343.085205 
z"/>
<path fill="#A1AD38" opacity="1.000000" stroke="none" 
	d="
M360.212189,322.054688 
	C360.583191,321.113861 361.286224,320.040100 362.253906,318.790405 
	C361.860474,319.716919 361.202332,320.819366 360.212189,322.054688 
z"/>
<path fill="#A1AD38" opacity="1.000000" stroke="none" 
	d="
M342.970093,339.684113 
	C343.542664,338.873840 344.441284,337.981140 345.649292,337.004700 
	C345.071198,337.814514 344.183655,338.708099 342.970093,339.684113 
z"/>
<path fill="#9DA636" opacity="1.000000" stroke="none" 
	d="
M187.135452,225.467651 
	C186.518845,226.238403 185.569458,227.059311 184.313263,227.961456 
	C184.938522,227.201080 185.870590,226.359451 187.135452,225.467651 
z"/>
<path fill="#9DA636" opacity="1.000000" stroke="none" 
	d="
M195.705475,219.042114 
	C195.233948,219.653336 194.436035,220.298233 193.327316,221.001312 
	C193.804031,220.398254 194.591553,219.737015 195.705475,219.042114 
z"/>
<path fill="#9DA636" opacity="1.000000" stroke="none" 
	d="
M157.731033,256.144104 
	C157.524811,256.919159 157.021271,257.830933 156.244232,258.910431 
	C156.458389,258.145721 156.946045,257.213287 157.731033,256.144104 
z"/>
<path fill="#9DA636" opacity="1.000000" stroke="none" 
	d="
M160.717758,252.121246 
	C160.621841,252.678864 160.246002,253.368073 159.607178,254.205109 
	C159.708725,253.652908 160.073288,252.952881 160.717758,252.121246 
z"/>
<path fill="#9DA636" opacity="1.000000" stroke="none" 
	d="
M191.661011,222.025436 
	C191.181747,222.610489 190.394714,223.256287 189.302246,223.966248 
	C189.782288,223.382339 190.567764,222.734268 191.661011,222.025436 
z"/>
<path fill="#9DA636" opacity="1.000000" stroke="none" 
	d="
M319.783020,246.153854 
	C319.687408,246.708328 319.311890,247.400620 318.674896,248.246948 
	C318.776672,247.697891 319.139893,246.994781 319.783020,246.153854 
z"/>
<path fill="#9DA636" opacity="1.000000" stroke="none" 
	d="
M163.768997,248.145599 
	C163.663010,248.703339 163.274582,249.389603 162.612198,250.208832 
	C162.721024,249.652573 163.103790,248.963348 163.768997,248.145599 
z"/>
<path fill="#9DA636" opacity="1.000000" stroke="none" 
	d="
M308.723785,258.087982 
	C308.347107,258.742767 307.659241,259.479553 306.687866,260.345825 
	C307.073792,259.706879 307.743195,258.938446 308.723785,258.087982 
z"/>
<path fill="#9DA636" opacity="1.000000" stroke="none" 
	d="
M318.147400,248.446152 
	C317.828705,249.157043 317.202240,249.970428 316.294189,250.912109 
	C316.621613,250.209839 317.230621,249.379227 318.147400,248.446152 
z"/>
<path fill="#9DA636" opacity="1.000000" stroke="none" 
	d="
M198.697845,217.053452 
	C198.210403,217.636597 197.413925,218.278656 196.307129,218.976288 
	C196.794159,218.392044 197.591476,217.752197 198.697845,217.053452 
z"/>
<path fill="#9DA636" opacity="1.000000" stroke="none" 
	d="
M220.942810,254.702896 
	C220.362549,254.213806 219.727005,253.415527 219.041534,252.306808 
	C219.623566,252.795486 220.255539,253.594604 220.942810,254.702896 
z"/>
<path fill="#9DA636" opacity="1.000000" stroke="none" 
	d="
M155.379517,259.954468 
	C155.258560,260.464844 154.881760,261.112549 154.254440,261.894226 
	C154.377197,261.382721 154.750443,260.737274 155.379517,259.954468 
z"/>
<path fill="#9DA636" opacity="1.000000" stroke="none" 
	d="
M324.645752,239.982422 
	C324.256165,240.597824 323.866547,241.213226 323.232697,241.963913 
	C323.190979,241.537964 323.393494,240.976730 323.941956,240.182465 
	C324.287933,239.949448 324.645752,239.982422 324.645752,239.982422 
z"/>
<path fill="#A1AD38" opacity="1.000000" stroke="none" 
	d="
M358.548584,323.926453 
	C358.627899,323.567627 358.979645,323.065094 359.617310,322.430115 
	C359.542511,322.792694 359.181732,323.287720 358.548584,323.926453 
z"/>
<path fill="#A1AD38" opacity="1.000000" stroke="none" 
	d="
M346.197571,336.864380 
	C346.272644,336.508606 346.623688,336.058380 347.260712,335.523071 
	C347.188995,335.882019 346.831268,336.325989 346.197571,336.864380 
z"/>
<path fill="#9DA636" opacity="1.000000" stroke="none" 
	d="
M188.755722,224.101837 
	C188.653183,224.427856 188.275299,224.851318 187.627197,225.389008 
	C187.731445,225.068588 188.105911,224.633926 188.755722,224.101837 
z"/>
<path fill="#9DA636" opacity="1.000000" stroke="none" 
	d="
M322.418915,242.986328 
	C322.400482,243.306122 322.151276,243.756393 321.674438,244.341446 
	C321.693909,244.023087 321.941040,243.569946 322.418915,242.986328 
z"/>
<path fill="#9DA636" opacity="1.000000" stroke="none" 
	d="
M222.060272,256.459778 
	C221.774429,256.322784 221.429947,255.925751 221.036652,255.263000 
	C221.325775,255.398117 221.663712,255.798950 222.060272,256.459778 
z"/>
<path fill="#9DA636" opacity="1.000000" stroke="none" 
	d="
M159.168274,254.378082 
	C159.127548,254.730621 158.833511,255.241898 158.275360,255.891235 
	C158.312500,255.531784 158.613739,255.034286 159.168274,254.378082 
z"/>
<path fill="#9DA636" opacity="1.000000" stroke="none" 
	d="
M162.152420,250.369873 
	C162.108780,250.718842 161.812805,251.223984 161.253387,251.864471 
	C161.293320,251.508560 161.596695,251.017303 162.152420,250.369873 
z"/>
<path fill="#9DA636" opacity="1.000000" stroke="none" 
	d="
M166.228058,245.466278 
	C166.167801,245.812363 165.844635,246.290787 165.257996,246.889832 
	C165.318069,246.539841 165.641602,246.069244 166.228058,245.466278 
z"/>
<path fill="#9DA636" opacity="1.000000" stroke="none" 
	d="
M321.252869,244.506958 
	C321.193298,244.854401 320.870880,245.335114 320.285339,245.939850 
	C320.344818,245.589325 320.667419,245.114777 321.252869,244.506958 
z"/>
<path fill="#A1AD38" opacity="1.000000" stroke="none" 
	d="
M347.704285,335.423523 
	C347.665833,335.238007 347.864594,334.930817 348.342407,334.557983 
	C348.394806,334.762146 348.168152,335.032013 347.704285,335.423523 
z"/>
<path fill="#A1AD38" opacity="1.000000" stroke="none" 
	d="
M324.788086,239.754303 
	C324.645752,239.982422 324.287933,239.949448 324.108398,239.932663 
	C324.133362,239.667130 324.362488,239.443695 324.822693,239.121536 
	C324.996216,239.173752 324.963318,239.349960 324.788086,239.754303 
z"/>
<path fill="#A1AD38" opacity="1.000000" stroke="none" 
	d="
M348.727814,334.491455 
	C348.681580,334.304871 348.869965,333.979767 349.341919,333.576111 
	C349.404449,333.782715 349.183441,334.067810 348.727814,334.491455 
z"/>
<path fill="#A1AD38" opacity="1.000000" stroke="none" 
	d="
M342.167969,340.794189 
	C342.014008,341.002716 342.017639,340.575897 342.014465,340.362518 
	C342.011261,340.149139 342.310089,339.782776 342.537903,339.716461 
	C342.617798,339.962006 342.469849,340.273834 342.167969,340.794189 
z"/>
<path fill="#30200E" opacity="1.000000" stroke="none" 
	d="
M229.202316,186.944550 
	C229.241394,186.744949 229.608826,186.527145 230.299072,186.276276 
	C230.258148,186.470901 229.894409,186.698608 229.202316,186.944550 
z"/>
<path fill="#A1AD38" opacity="1.000000" stroke="none" 
	d="
M349.729706,333.496460 
	C349.684326,333.310333 349.874268,332.985382 350.347839,332.580872 
	C350.409332,332.786743 350.187164,333.072205 349.729706,333.496460 
z"/>
<path fill="#A1AD38" opacity="1.000000" stroke="none" 
	d="
M350.732971,332.501984 
	C350.687622,332.317657 350.877350,331.994049 351.347534,331.586914 
	C351.408020,331.789825 351.188019,332.076263 350.732971,332.501984 
z"/>
<path fill="#A1AD38" opacity="1.000000" stroke="none" 
	d="
M351.733154,331.502563 
	C351.687714,331.321106 351.875854,331.000610 352.338501,330.590942 
	C352.397583,330.788971 352.182129,331.076233 351.733154,331.502563 
z"/>
<path fill="#A1AD38" opacity="1.000000" stroke="none" 
	d="
M352.729675,330.490417 
	C352.686127,330.310150 352.875946,329.994385 353.338196,329.590393 
	C353.394775,329.786407 353.178925,330.070648 352.729675,330.490417 
z"/>
<path fill="#9DA636" opacity="1.000000" stroke="none" 
	d="
M192.844315,221.124695 
	C192.868317,221.290237 192.671936,221.565399 192.224243,221.901398 
	C192.131302,221.667175 192.348297,221.424530 192.844315,221.124695 
z"/>
<path fill="#A1AD38" opacity="1.000000" stroke="none" 
	d="
M368.788818,258.113831 
	C368.816650,258.267578 368.636536,258.539703 368.218628,258.890015 
	C368.120819,258.673950 368.320862,258.428589 368.788818,258.113831 
z"/>
<path fill="#A1AD38" opacity="1.000000" stroke="none" 
	d="
M369.801727,257.125153 
	C369.832184,257.280579 369.655121,257.559326 369.236755,257.917419 
	C369.135254,257.699524 369.334869,257.450104 369.801727,257.125153 
z"/>
<path fill="#A1AD38" opacity="1.000000" stroke="none" 
	d="
M370.763397,256.121033 
	C370.800903,256.274078 370.639435,256.556976 370.239990,256.924469 
	C370.128662,256.711243 370.316162,256.458527 370.763397,256.121033 
z"/>
<path fill="#9DA636" opacity="1.000000" stroke="none" 
	d="
M315.830200,251.136841 
	C315.864532,251.296356 315.686310,251.589050 315.258972,251.970825 
	C315.212463,251.796616 315.415009,251.533310 315.830200,251.136841 
z"/>
<path fill="#9DA636" opacity="1.000000" stroke="none" 
	d="
M164.798187,247.124512 
	C164.838806,247.284149 164.668777,247.574921 164.256012,247.960297 
	C164.133606,247.737396 164.325043,247.470978 164.798187,247.124512 
z"/>
<path fill="#A1AD38" opacity="1.000000" stroke="none" 
	d="
M379.825378,244.124847 
	C379.850555,244.281509 379.665649,244.560394 379.233917,244.909790 
	C379.142670,244.689789 379.352081,244.445389 379.825378,244.124847 
z"/>
<path fill="#A8CC24" opacity="1.000000" stroke="none" 
	d="
M253.000519,311.105469 
	C253.000519,311.105469 252.887054,311.563354 252.689835,312.086792 
	C252.596161,313.408234 252.461334,314.350067 252.841934,314.980957 
	C255.317169,319.084106 252.959793,320.838715 249.606628,322.555481 
	C245.596970,324.608429 244.615463,321.898376 242.948486,319.232361 
	C240.911926,315.975220 238.269974,313.096649 235.889816,310.054352 
	C235.889816,310.054352 235.955292,310.034546 235.858093,309.844055 
	C235.583359,309.368317 235.349640,309.140747 235.059738,308.970886 
	C235.059738,308.970886 235.002655,308.995148 234.949615,308.628754 
	C232.532211,305.385406 230.586487,301.948120 227.689682,299.783844 
	C224.585754,297.464844 223.424423,295.192139 224.553543,291.625305 
	C224.553543,291.625305 224.589035,291.709534 224.883148,291.586243 
	C227.414749,290.359741 229.652222,289.256561 231.889694,288.153351 
	C231.889694,288.153351 232.083008,288.149292 232.222870,288.589783 
	C236.868805,295.829926 242.493286,299.853546 251.367493,299.087280 
	C259.785522,298.360413 268.315521,298.929840 276.796295,298.930603 
	C296.085876,298.932373 315.375671,298.983398 334.664856,298.895020 
	C338.367249,298.878052 340.143433,300.036865 340.144714,304.039276 
	C340.146057,308.099548 338.236206,309.090363 334.600006,309.136047 
	C324.305084,309.265472 314.014435,309.826233 303.720093,309.888916 
	C287.760193,309.986115 271.798615,309.788361 255.837875,309.810547 
	C254.891495,309.811859 253.946289,310.654388 253.000519,311.105469 
z"/>
<path fill="#A2B037" opacity="1.000000" stroke="none" 
	d="
M253.381775,311.153809 
	C253.946289,310.654388 254.891495,309.811859 255.837875,309.810547 
	C271.798615,309.788361 287.760193,309.986115 303.720093,309.888916 
	C314.014435,309.826233 324.305084,309.265472 334.600006,309.136047 
	C338.236206,309.090363 340.146057,308.099548 340.144714,304.039276 
	C340.143433,300.036865 338.367249,298.878052 334.664856,298.895020 
	C315.375671,298.983398 296.085876,298.932373 276.796295,298.930603 
	C268.315521,298.929840 259.785522,298.360413 251.367493,299.087280 
	C242.493286,299.853546 236.868805,295.829926 232.235962,288.685547 
	C233.443970,289.302917 235.108398,290.015778 236.056503,291.270081 
	C240.188965,296.737030 245.589798,297.778961 252.197495,297.699921 
	C279.992706,297.367310 307.794159,297.559296 335.593323,297.559265 
	C337.562164,297.559265 339.531006,297.559265 341.771698,297.559265 
	C341.771698,301.470612 342.074432,304.945160 341.582245,308.303162 
	C341.439545,309.276733 339.037415,310.563782 337.639374,310.603912 
	C328.656494,310.861908 319.664825,310.812317 310.676025,310.865295 
	C291.705048,310.977112 272.734039,311.089844 253.381775,311.153809 
z"/>
<path fill="#A2B037" opacity="1.000000" stroke="none" 
	d="
M235.968231,310.396851 
	C238.269974,313.096649 240.911926,315.975220 242.948486,319.232361 
	C244.615463,321.898376 245.596970,324.608429 249.606628,322.555481 
	C252.959793,320.838715 255.317169,319.084106 252.841934,314.980957 
	C252.461334,314.350067 252.596161,313.408234 252.618317,312.311554 
	C254.107544,314.780060 255.471100,317.547272 256.868652,320.383514 
	C255.925873,321.070312 255.456879,321.547424 254.888443,321.805817 
	C245.482208,326.081390 245.507278,326.058929 240.401764,317.348236 
	C239.069534,315.075256 237.504684,312.938629 235.968231,310.396851 
z"/>
<path fill="#A2B037" opacity="1.000000" stroke="none" 
	d="
M224.282516,291.832458 
	C223.424423,295.192139 224.585754,297.464844 227.689682,299.783844 
	C230.586487,301.948120 232.532211,305.385406 234.969269,308.604736 
	C231.332321,305.516479 227.785965,301.883392 223.861832,298.718750 
	C220.675415,296.149048 222.704041,294.225861 224.282516,291.832458 
z"/>
<path fill="#A2B037" opacity="1.000000" stroke="none" 
	d="
M231.709320,287.849274 
	C229.652222,289.256561 227.414749,290.359741 224.839569,291.572510 
	C226.380646,289.515686 225.985001,283.485779 231.709320,287.849274 
z"/>
<path fill="#A2B037" opacity="1.000000" stroke="none" 
	d="
M235.122665,309.225098 
	C235.349640,309.140747 235.583359,309.368317 235.864258,309.877716 
	C235.706940,309.894318 235.446274,309.686829 235.122665,309.225098 
z"/>
</svg>